<svg width="134" height="27" viewBox="0 0 134 27" fill="none" xmlns="http://www.w3.org/2000/svg">
<g clip-path="url(#clip0_2_2)">
<path d="M38.1309 23.7556C37.4044 25.7887 35.0853 27 32.95 27H2.76682C0.632881 27 -0.506767 25.7887 0.218652 23.7556C0.945159 21.7218 3.26402 20.5085 5.39834 20.5085H35.5825C37.717 20.5085 38.8574 21.7218 38.1309 23.7556Z" fill="#6EC72E"/>
<path d="M32.4669 13.4999C31.7394 15.5341 29.4206 16.7454 27.286 16.7454H6.44877C4.31483 16.7454 3.17322 15.5341 3.90101 13.4999C4.62721 11.4665 6.94716 10.2546 9.07951 10.2546H29.918C32.0528 10.2546 33.1919 11.4665 32.4669 13.4999Z" fill="#6EC72E"/>
<path d="M44.4134 3.24524C43.6866 5.27849 41.3675 6.491 39.2327 6.491H9.89255C7.7596 6.491 6.61789 5.27849 7.3449 3.24524C8.07239 1.2131 10.3903 -0.000250702 12.5247 -0.000250702H41.8649C43.9995 -0.000250702 45.1391 1.2131 44.4134 3.24524Z" fill="#6EC72E"/>
<path d="M109.072 20.4057C112.42 20.3809 115.044 19.1915 116.112 16.6458L118.823 10.1829C119.891 7.63728 118.254 6.47743 114.906 6.4999H101.695C98.286 6.52379 95.6634 7.71403 94.5944 10.2605L91.8842 16.7218C90.8164 19.2694 92.4538 20.4291 95.8621 20.4057H109.072ZM91.046 26.8888C87.8827 26.8888 80.7896 26.1147 85.1325 15.7638L86.9539 11.4209C89.8874 4.42767 94.0676 0.0567591 101.963 0.0567591H119.267C126.086 0.0567591 128.472 4.23852 125.576 11.1419L123.754 15.4857C120.835 22.4437 118.269 26.8888 107.304 26.8888H91.046Z" fill="#393536"/>
<path d="M81.9525 -0.000262614H59.8408C59.5142 -0.000262614 59.1555 0.0310724 58.7821 0.0857813C51.5678 0.464634 47.6313 4.7479 44.831 11.4209L43.0089 15.7644C38.6675 26.1142 45.7603 26.8888 48.9242 26.8888H65.1817C76.1487 26.8888 78.7128 22.4437 81.6323 15.4862L82.3244 13.8403L82.3199 13.8383C82.3712 13.7284 82.4201 13.616 82.4611 13.4997C83.1874 11.4673 82.0467 10.2549 79.9124 10.2549H63.5896C61.4559 10.2549 59.1368 11.4673 58.4103 13.4997C57.6825 15.5336 58.8232 16.7454 60.9579 16.7454H73.9433C72.8487 19.2213 70.2537 20.3824 66.9519 20.4057H53.7397C50.3316 20.4291 48.6935 19.2687 49.7613 16.7218L52.4738 10.2607C53.5413 7.71372 56.1634 6.52358 59.5725 6.50021L59.5727 6.49047H79.3216C81.4549 6.49047 83.7739 5.27807 84.501 3.24523C85.228 1.21309 84.0863 -0.000262614 81.9525 -0.000262614Z" fill="#393536"/>
<path d="M131.143 1.37044L131.143 1.86308L130.503 1.86256L130.501 4.28458L129.952 4.28409L129.953 1.86208L129.313 1.86156L129.314 1.36913L131.143 1.37044Z" fill="#393536"/>
<path d="M131.46 4.2851L131.462 1.37045L132.23 1.37097L132.726 3.28478H132.734L133.232 1.37166L134 1.37217L133.998 4.28659H133.529L133.53 1.99352H133.523L132.936 4.2861L132.522 4.28579L131.939 1.99252H131.931L131.93 4.28559L131.46 4.2851Z" fill="#393536"/>
</g>
<defs>
<clipPath id="clip0_2_2">
<rect width="134" height="27" fill="white"/>
</clipPath>
</defs>
</svg>
